<svg width="21" height="23" viewBox="0 0 21 23" fill="none" xmlns="http://www.w3.org/2000/svg">
<g clip-path="url(#clip0_188_254)">
<path d="M14.6562 21.8532V17.6605C14.8051 16.3474 14.4207 15.0297 13.5859 13.9919C16.7969 13.9919 20.008 11.8955 20.008 8.22689C20.0936 6.91667 19.719 5.62741 18.9376 4.55827C19.2373 3.35286 19.2373 2.09505 18.9376 0.889648C18.9376 0.889648 17.8673 0.889648 15.7266 2.46191C12.9008 1.93783 9.98948 1.93783 7.16374 2.46191C5.02303 0.889648 3.95267 0.889648 3.95267 0.889648C3.63157 2.09505 3.63157 3.35286 3.95267 4.55827C3.17332 5.62309 2.79505 6.91959 2.88232 8.22689C2.88232 11.8955 6.09338 13.9919 9.30445 13.9919C8.88701 14.5055 8.57661 15.0924 8.39465 15.7214C8.21269 16.3503 8.15917 17.0106 8.23409 17.6605V21.8532" stroke="white" stroke-width="2" stroke-linecap="round" stroke-linejoin="round"/>
<path d="M8.015 17.9487C3.5952 19.9141 3.115 15.9834 1.155 15.9834" stroke="white" stroke-width="2" stroke-linecap="round" stroke-linejoin="round"/>
</g>
<defs>
<clipPath id="clip0_188_254">
<rect width="21" height="23" fill="white"/>
</clipPath>
</defs>
</svg>
